# xmcd
#
# Track frame offsets:
#	150
#	11635
#	24372
#	35902
#	51080
#	67090
#	81710
#	95667
#	112365
#	123105
#
# Disc length: 1774
#
# Revision: 1
# Processed by: cddbd v1.5.1PL0 Copyright (c) Steve Scherf et al.
# Submitted via: dBpowerAMP V4.0
# Normalized: r0:TSWAP
#
DISCID=9006ec0a
DTITLE=Various Artist - Desperados
DYEAR=1995
DGENRE=Country
TTITLE0=Waylon Jennings - Ladies Love Outlaws
TTITLE1=Willie Nelson - Bloody Mary Morning
TTITLE2=Waylon Jennings - My Rough And Rowdy Days
TTITLE3=Jessi Colter - I'm Not Lisa
TTITLE4=Willie Nelson - Whiskey River
TTITLE5=Tompall and His Outlaw Band - T For Texas
TTITLE6=Willie Nelson - My Heroes Have Always Been Cowboys
TTITLE7=Waylon Jennings - Rose In Paradise
TTITLE8=Jessi Colter - It's Morning (And I Still Love You)
TTITLE9=Tompall Glasser - Bad, Bad, Bad Cowboy
EXTD=
EXTT0=
EXTT1=
EXTT2=
EXTT3=
EXTT4=
EXTT5=
EXTT6=
EXTT7=
EXTT8=
EXTT9=
PLAYORDER=
